<?xml version="1.0" standalone="no"?>
<!DOCTYPE svg PUBLIC "-//W3C//DTD SVG 20010904//EN"
 "http://www.w3.org/TR/2001/REC-SVG-20010904/DTD/svg10.dtd">
<svg version="1.0" xmlns="http://www.w3.org/2000/svg"
 width="422.000000pt" height="422.000000pt" viewBox="0 0 422.000000 422.000000"
 preserveAspectRatio="xMidYMid meet">
<metadata>
Created by potrace 1.11, written by Peter Selinger 2001-2013
</metadata>
<g transform="translate(0.000000,422.000000) scale(0.100000,-0.100000)"
fill="#000000" stroke="none">
<path d="M0 2115 l0 -2105 2110 0 2110 0 0 2105 0 2105 -2110 0 -2110 0 0
-2105z m3020 1370 c481 -96 875 -175 877 -175 2 0 3 -41 3 -90 l0 -91 -32 6
c-18 3 -395 60 -838 126 -443 66 -833 124 -867 130 l-63 11 0 134 c0 134 0
134 23 129 12 -3 416 -84 897 -180z m-564 -321 c137 -20 249 -36 250 -37 41
-86 381 -737 384 -737 3 0 91 139 195 310 120 196 196 310 206 310 9 0 96 -9
195 -20 98 -11 187 -20 197 -20 16 0 17 -46 17 -830 0 -784 -1 -830 -17 -830
-10 0 -94 -9 -188 -20 -93 -11 -176 -20 -182 -20 -10 0 -13 109 -13 511 0 299
-4 508 -9 505 -5 -3 -96 -168 -202 -366 -107 -197 -196 -359 -199 -359 -3 0
-97 164 -210 364 l-205 364 -3 -574 c-1 -316 -3 -575 -5 -575 -1 0 -106 -14
-232 -30 -126 -17 -233 -30 -237 -30 -4 0 -8 477 -8 1060 0 583 4 1060 9 1060
4 0 120 -16 257 -36z m1444 -2104 c0 -49 -1 -90 -3 -90 -5 0 -1750 -349 -1774
-355 -23 -5 -23 -5 -23 129 l0 134 43 8 c54 9 1728 262 1745 263 9 1 12 -23
12 -89z"/>
</g>
</svg>
